<svg
 xmlns="http://www.w3.org/2000/svg"
 xmlns:xlink="http://www.w3.org/1999/xlink"
 width="2170px" height="377px">
<path fill-rule="evenodd"  fill="rgb(0, 0, 0)"
 d="M2169.121,283.656 L2112.457,283.656 L2046.100,181.884 L1978.624,283.656 L1925.315,283.656 L2019.632,145.723 L1931.653,17.483 L1987.199,17.483 L2047.591,111.426 L2110.593,17.483 L2162.784,17.483 L2074.805,145.723 L2169.121,283.656 ZM1897.360,125.965 C1890.149,125.965 1883.380,127.398 1877.043,130.252 C1870.705,133.112 1865.172,137.335 1860.454,142.927 C1855.730,148.519 1852.002,155.416 1849.270,163.617 C1846.532,171.819 1845.169,181.267 1845.169,191.949 L1845.169,283.656 L1802.671,283.656 L1802.671,90.923 L1842.560,90.923 L1842.560,128.202 L1843.305,128.202 C1844.546,122.983 1846.969,117.892 1850.575,112.917 C1854.174,107.949 1858.526,103.411 1863.622,99.311 C1868.713,95.210 1874.369,91.919 1880.584,89.432 C1886.794,86.950 1893.131,85.704 1899.597,85.704 C1904.565,85.704 1907.985,85.832 1909.848,86.076 C1911.712,86.327 1913.635,86.577 1915.627,86.822 L1915.627,127.829 C1912.644,127.334 1909.598,126.897 1906.493,126.524 C1903.383,126.152 1900.342,125.965 1897.360,125.965 ZM1613.665,198.287 C1613.665,205.743 1614.720,212.954 1616.834,219.909 C1618.943,226.870 1622.111,232.957 1626.340,238.176 C1630.563,243.395 1635.905,247.560 1642.370,250.664 C1648.830,253.775 1656.536,255.324 1665.483,255.324 C1677.908,255.324 1687.909,252.656 1695.493,247.309 C1703.071,241.968 1708.727,233.953 1712.455,223.264 L1752.717,223.264 C1750.480,233.702 1746.624,243.022 1741.160,251.223 C1735.691,259.425 1729.103,266.321 1721.402,271.913 C1713.696,277.505 1705.058,281.734 1695.493,284.588 C1685.923,287.442 1675.921,288.875 1665.483,288.875 C1650.321,288.875 1636.901,286.388 1625.222,281.420 C1613.537,276.451 1603.658,269.490 1595.585,260.543 C1587.506,251.596 1581.419,240.913 1577.318,228.483 C1573.217,216.059 1571.167,202.388 1571.167,187.476 C1571.167,173.811 1573.340,160.821 1577.691,148.519 C1582.036,136.217 1588.251,125.406 1596.330,116.086 C1604.404,106.766 1614.160,99.375 1625.595,93.905 C1637.023,88.441 1649.948,85.704 1664.365,85.704 C1679.521,85.704 1693.128,88.872 1705.186,95.210 C1717.237,101.547 1727.239,109.935 1735.195,120.373 C1743.146,130.812 1748.925,142.805 1752.530,156.348 C1756.130,169.896 1757.062,183.876 1755.326,198.287 L1613.665,198.287 ZM1708.541,150.942 C1706.176,144.733 1702.949,139.327 1698.848,134.726 C1694.747,130.130 1689.773,126.402 1683.937,123.542 C1678.094,120.688 1671.570,119.255 1664.365,119.255 C1656.909,119.255 1650.135,120.560 1644.048,123.169 C1637.955,125.779 1632.736,129.384 1628.391,133.980 C1624.039,138.582 1620.562,143.987 1617.952,150.197 C1615.343,156.412 1613.910,163.122 1613.665,170.327 L1712.828,170.327 C1712.327,163.617 1710.900,157.157 1708.541,150.942 ZM1479.090,257.561 L1478.345,257.561 C1472.625,268.745 1464.301,276.760 1453.368,281.606 C1442.429,286.452 1430.872,288.875 1418.698,288.875 C1403.536,288.875 1390.302,286.202 1378.996,280.860 C1367.684,275.519 1358.306,268.249 1350.850,259.052 C1343.394,249.860 1337.802,238.985 1334.074,226.433 C1330.346,213.886 1328.482,200.401 1328.482,185.985 C1328.482,168.592 1330.841,153.552 1335.565,140.877 C1340.284,128.202 1346.563,117.764 1354.391,109.562 C1362.220,101.361 1371.167,95.338 1381.232,91.482 C1391.298,87.632 1401.550,85.704 1411.988,85.704 C1417.952,85.704 1424.039,86.263 1430.255,87.381 C1436.464,88.500 1442.429,90.305 1448.149,92.787 C1453.863,95.274 1459.146,98.443 1463.992,102.293 C1468.839,106.149 1472.875,110.681 1476.108,115.900 L1476.854,115.900 L1476.854,17.483 L1519.352,17.483 L1519.352,283.656 L1479.090,283.656 L1479.090,257.561 ZM1463.992,137.149 C1454.422,125.220 1441.438,119.255 1425.035,119.255 C1415.092,119.255 1406.705,121.305 1399.872,125.406 C1393.034,129.507 1387.442,134.854 1383.096,141.436 C1378.745,148.024 1375.641,155.480 1373.777,163.804 C1371.913,172.133 1370.981,180.643 1370.981,189.340 C1370.981,197.541 1372.035,205.620 1374.149,213.571 C1376.258,221.528 1379.491,228.611 1383.842,234.821 C1388.187,241.036 1393.721,246.004 1400.431,249.732 C1407.141,253.460 1415.092,255.324 1424.290,255.324 C1433.732,255.324 1441.869,253.338 1448.708,249.359 C1455.540,245.387 1461.132,240.168 1465.483,233.702 C1469.829,227.242 1473.062,219.973 1475.176,211.894 C1477.285,203.821 1478.345,195.555 1478.345,187.103 C1478.345,165.732 1473.557,149.078 1463.992,137.149 ZM1234.167,17.483 L1276.665,17.483 L1276.665,283.656 L1234.167,283.656 L1234.167,17.483 ZM1129.414,90.923 L1171.912,90.923 L1171.912,283.656 L1129.414,283.656 L1129.414,90.923 ZM1129.414,17.483 L1171.912,17.483 L1171.912,57.744 L1129.414,57.744 L1129.414,17.483 ZM1026.900,256.815 L1026.154,256.815 C1020.935,266.508 1013.165,274.278 1002.854,280.115 C992.539,285.951 982.036,288.875 971.354,288.875 C946.004,288.875 927.673,282.602 916.367,270.049 C905.055,257.503 899.405,238.548 899.405,213.199 L899.405,90.923 L941.903,90.923 L941.903,209.098 C941.903,226.002 945.130,237.931 951.596,244.886 C958.055,251.847 967.125,255.324 978.809,255.324 C987.756,255.324 995.212,253.961 1001.177,251.223 C1007.142,248.491 1011.988,244.828 1015.716,240.226 C1019.444,235.630 1022.112,230.102 1023.731,223.637 C1025.344,217.177 1026.154,210.216 1026.154,202.760 L1026.154,90.923 L1068.652,90.923 L1068.652,283.656 L1026.900,283.656 L1026.900,256.815 ZM835.659,164.176 C844.105,176.234 848.334,191.332 848.334,209.471 C848.334,219.909 846.470,229.665 842.742,238.735 C839.014,247.810 833.172,255.639 825.221,262.221 C817.264,268.809 807.076,274.028 794.652,277.878 C782.222,281.734 767.438,283.656 750.290,283.656 L628.014,283.656 L628.014,17.483 L757.373,17.483 C781.231,17.483 800.366,22.952 814.783,33.886 C829.193,44.825 836.405,61.350 836.405,83.467 C836.405,96.887 833.108,108.386 826.526,117.950 C819.938,127.520 810.554,134.912 798.380,140.131 L798.380,140.877 C814.783,144.360 827.207,152.125 835.659,164.176 ZM779.740,63.709 C773.030,58.245 763.337,55.507 750.663,55.507 L674.613,55.507 L674.613,128.948 L750.663,128.948 C761.846,128.948 771.166,125.779 778.622,119.441 C786.078,113.104 789.806,103.970 789.806,92.041 C789.806,78.621 786.451,69.178 779.740,63.709 ZM789.992,173.123 C782.163,166.040 771.166,162.499 757.000,162.499 L674.613,162.499 L674.613,245.631 L757.000,245.631 C771.166,245.631 782.163,241.968 789.992,234.634 C797.821,227.306 801.735,216.926 801.735,203.506 C801.735,190.336 797.821,180.206 789.992,173.123 Z"/>
<path fill-rule="evenodd"  fill="rgb(0, 0, 0)"
 d="M382.054,238.893 L336.256,238.893 L292.463,175.043 L250.007,238.893 L205.212,238.893 L270.399,147.965 L210.561,66.063 L256.693,66.063 L292.797,119.216 L330.573,66.063 L374.700,66.063 L315.864,145.959 L382.054,238.893 ZM160.252,215.994 C154.120,224.352 146.379,231.037 137.018,236.052 C127.658,241.066 116.626,243.574 103.923,243.574 C98.125,243.574 92.275,243.182 86.373,242.403 C80.465,241.620 74.839,240.116 69.491,237.891 C64.142,235.665 59.295,232.766 54.949,229.199 C50.603,225.636 46.978,220.956 44.084,215.158 L43.416,215.158 L43.416,238.893 L7.312,238.893 L7.312,0.206 L45.421,0.206 L45.421,88.460 L46.090,88.460 C48.764,84.230 51.992,80.437 55.785,77.094 C59.572,73.751 63.750,70.910 68.321,68.570 C72.886,66.230 77.681,64.449 82.695,63.221 C87.710,61.999 92.667,61.383 97.571,61.383 C111.163,61.383 123.030,63.780 133.174,68.570 C143.313,73.365 151.727,79.936 158.413,88.293 C165.099,96.651 170.114,106.403 173.457,117.544 C176.800,128.691 178.471,140.611 178.471,153.314 C178.471,164.904 176.967,176.161 173.958,187.078 C170.949,198.000 166.379,207.637 160.252,215.994 ZM137.353,129.913 C135.347,122.559 132.338,116.040 128.327,110.357 C124.315,104.674 119.301,100.109 113.283,96.651 C107.266,93.198 100.356,91.469 92.557,91.469 C76.511,91.469 64.419,97.042 56.286,108.184 C48.148,119.331 44.084,134.149 44.084,152.645 C44.084,161.337 45.139,169.417 47.260,176.882 C49.375,184.351 52.551,190.755 56.787,196.104 C61.018,201.452 66.090,205.688 71.998,208.807 C77.900,211.930 84.753,213.487 92.557,213.487 C101.249,213.487 108.603,211.706 114.621,208.138 C120.638,204.576 125.595,199.948 129.497,194.265 C133.393,188.582 136.183,182.121 137.854,174.876 C139.526,167.636 140.361,160.224 140.361,152.645 C140.361,144.847 139.358,137.268 137.353,129.913 Z"/>
<path fill-rule="evenodd"  fill="#23b9d1"
 d="M0.027,335.029 L395.973,335.029 L395.973,376.955 L0.027,376.955 L0.027,335.029 Z"/>
</svg>